<?xml version="1.0" encoding="utf-8"?>
<!-- Generator: Adobe Illustrator 25.0.0, SVG Export Plug-In . SVG Version: 6.00 Build 0)  -->
<svg version="1.1" id="Layer_1" xmlns="http://www.w3.org/2000/svg" xmlns:xlink="http://www.w3.org/1999/xlink" x="0px" y="0px"
	 viewBox="0 0 1040 1040" style="enable-background:new 0 0 1040 1040;" xml:space="preserve">
<style type="text/css">
	.st0{filter:url(#Adobe_OpacityMaskFilter);}
	.st1{fill-rule:evenodd;clip-rule:evenodd;fill:#FFFFFF;}
	.st2{mask:url(#mask-2_2_);fill-rule:evenodd;clip-rule:evenodd;fill:#F4D100;}
</style>
<g>
	<g id="Group-3">
		<g id="Clip-2">
		</g>
		<defs>
			<filter id="Adobe_OpacityMaskFilter" filterUnits="userSpaceOnUse" x="30.5" y="156.2" width="980" height="726">
				<feColorMatrix  type="matrix" values="1 0 0 0 0  0 1 0 0 0  0 0 1 0 0  0 0 0 1 0"/>
			</filter>
		</defs>
		<mask maskUnits="userSpaceOnUse" x="30.5" y="156.2" width="980" height="726" id="mask-2_2_">
			<g class="st0">
				<polygon id="path-1_2_" class="st1" points="30.5,156.2 1010.5,156.2 1010.5,882.2 30.5,882.2 				"/>
			</g>
		</mask>
		<path id="Fill-1" class="st2" d="M31.1,793l68-567.6c5.5-45.8,52.4-77.4,100.9-67.3c159.1,32.9,494.2,33,655.3,0.5
			c49.3-9.9,96.6,22.5,101,69.1l53.9,567.1c4.4,47-35.5,87.4-86.3,87.4H117.2C65.5,882.2,25.4,840.6,31.1,793"/>
	</g>
	<path id="Fill-4" class="st1" d="M447.7,389.7H294.3v111.4h113.9c23,0,41.6,18.3,41.6,40.9c0,22.6-18.6,41-41.6,41H294.3v140
		c0,25.8-21.2,46.7-47.4,46.7s-47.4-20.9-47.4-46.7V372.4c0-36.1,29.7-65.3,66.3-65.3h182.6c23,0,41.6,18.3,41.6,40.9
		C490,371,471,389.7,447.7,389.7"/>
	<path id="Fill-6" class="st1" d="M871.8,618.7c0,98-81.1,159.1-173.9,159.1c-47.7,0-96.4-19.6-130.7-50.7
		c-19.6-17.8-16.2-49.3,5.9-63.9c16.1-10.6,37.3-8.6,51.6,4.3c18.9,17,45.3,27.8,69.1,27.8c51.1,0,87.3-32.2,87.3-77.2
		c0-43-34.8-73.9-82.5-73.9c-34.8,0-70.9,16.1-98.2,39.6l-52.5-32.9l38.9-221.6h212.7c23,0,41.6,18.3,41.6,41
		c0,22.6-18.6,40.9-41.6,40.9H661.1l-17.7,84.6c40.1-28,109.6-36.7,166.6,1.4C850.5,524.1,871.8,570.5,871.8,618.7"/>
</g>
</svg>
