<?xml version="1.0" encoding="utf-8"?>
<!-- Generator: Adobe Illustrator 25.2.1, SVG Export Plug-In . SVG Version: 6.00 Build 0)  -->
<svg version="1.1" id="Layer_1" xmlns="http://www.w3.org/2000/svg" xmlns:xlink="http://www.w3.org/1999/xlink" x="0px" y="0px"
	 viewBox="0 0 164 40" style="enable-background:new 0 0 164 40;" xml:space="preserve">
<style type="text/css">
	.st0{enable-background:new    ;}
</style>
<g class="st0">
	<path d="M8,29.8v-6.2l-4.8-8.9h3.9l1.5,3.6c0.5,1.1,0.8,1.9,1.2,2.9h0c0.3-0.9,0.7-1.8,1.1-2.9l1.5-3.6h3.8l-5,8.8v6.3H8z"/>
	<path d="M17.5,14.9c0.9-0.2,2.7-0.3,4.4-0.3c2.1,0,3.4,0.2,4.4,0.8c1.1,0.6,1.8,1.6,1.8,2.9c0,1.3-0.8,2.6-2.5,3.2v0
		c1.7,0.5,3,1.8,3,3.7c0,1.4-0.6,2.4-1.6,3.2c-1.1,0.9-2.9,1.4-5.9,1.4c-1.7,0-2.9-0.1-3.7-0.2V14.9z M20.9,20.7H22
		c1.8,0,2.7-0.7,2.7-1.9c0-1.1-0.9-1.7-2.4-1.7c-0.7,0-1.2,0-1.5,0.1V20.7z M20.9,27.4c0.3,0,0.7,0,1.3,0c1.5,0,2.9-0.6,2.9-2.2
		c0-1.5-1.4-2.1-3.1-2.1h-1.2V27.4z"/>
	<path d="M34.8,18.3L34.8,18.3L32,19.6L31.5,17l3.8-1.8h2.8v14.5h-3.3V18.3z"/>
	<path d="M53.6,22.5c0,4.5-1.8,7.6-5.5,7.6c-3.8,0-5.4-3.4-5.4-7.5c0-4.2,1.8-7.5,5.5-7.5C52.1,15,53.6,18.5,53.6,22.5z M46.1,22.5
		c0,3.3,0.8,4.9,2.1,4.9s2-1.7,2-5c0-3.2-0.7-4.9-2.1-4.9C46.9,17.6,46.1,19.2,46.1,22.5z"/>
	<path d="M59.6,18.3L59.6,18.3l-2.8,1.3L56.3,17l3.8-1.8h2.8v14.5h-3.3V18.3z"/>
	<path d="M72.8,14.9c1.1-0.2,2.7-0.3,4.5-0.3c2.2,0,3.8,0.3,4.9,1.2c0.9,0.7,1.4,1.8,1.4,3.2c0,1.9-1.4,3.2-2.7,3.7v0.1
		c1.1,0.4,1.6,1.4,2,2.8c0.5,1.7,0.9,3.7,1.2,4.2h-3.5c-0.2-0.4-0.6-1.7-1-3.5c-0.4-1.9-1-2.4-2.4-2.4h-1v5.9h-3.4V14.9z M76.1,21.4
		h1.3c1.7,0,2.7-0.8,2.7-2.2c0-1.4-0.9-2.1-2.5-2.1c-0.8,0-1.3,0.1-1.5,0.1V21.4z"/>
	<path d="M95,23.4h-5.5V27h6.2v2.8H86V14.7h9.3v2.8h-5.9v3.1H95V23.4z"/>
	<path d="M101.6,29.8l-4.8-15.1h3.7l1.8,6.4c0.5,1.8,1,3.5,1.3,5.4h0.1c0.4-1.8,0.8-3.6,1.4-5.3l1.9-6.4h3.6l-5.1,15.1H101.6z"/>
	<path d="M115.7,14.7v15.1h-3.4V14.7H115.7z"/>
	<path d="M127.6,23.4h-5.5V27h6.2v2.8h-9.6V14.7h9.3v2.8h-5.9v3.1h5.5V23.4z"/>
	<path d="M133.2,29.8l-3.6-15.1h3.6l1.1,6.2c0.3,1.8,0.6,3.7,0.9,5.2h0c0.2-1.6,0.6-3.4,1-5.3l1.3-6.2h3.6l1.2,6.3
		c0.3,1.8,0.6,3.4,0.8,5h0c0.2-1.7,0.6-3.4,0.9-5.2l1.2-6.2h3.5l-3.9,15.1h-3.7l-1.3-6.5c-0.3-1.5-0.5-2.9-0.7-4.6h0
		c-0.3,1.7-0.5,3.1-0.9,4.6l-1.4,6.5H133.2z"/>
	<path d="M150.5,26.3c0.9,0.5,2.3,0.9,3.8,0.9c1.6,0,2.4-0.6,2.4-1.6c0-0.9-0.7-1.5-2.5-2.1c-2.5-0.9-4.1-2.3-4.1-4.4
		c0-2.6,2.1-4.5,5.7-4.5c1.7,0,2.9,0.4,3.8,0.8l-0.8,2.7c-0.6-0.3-1.7-0.7-3.1-0.7c-1.5,0-2.2,0.7-2.2,1.5c0,1,0.8,1.4,2.8,2.1
		c2.7,1,3.9,2.4,3.9,4.5c0,2.5-1.9,4.7-6.1,4.7c-1.7,0-3.4-0.4-4.3-0.9L150.5,26.3z"/>
</g>
</svg>
